<svg viewBox="0 0 160 160" version="1.1" id="svg_null"><g id="root" stroke="none" stroke-width="1" fill="none" fill-rule="evenodd"><rect id="background.accent" fill="#c7eeff" x="0" y="0" width="160" height="160"></rect><path d="M23 23l0 114l114 0l0 -114l-114 0zm-2 -2l118 0l0 118l-118 0l0 -118z" id="shape.primary" fill="#393737" fill-rule="nonzero"></path><g id="group" transform="translate(31.000000, 111.000000)"><rect id="Rectangle-14" x="0" y="0" width="96" height="22"></rect><text id="headerText.primary" font-family="Roboto" font-size="13.341052907616387" font-weight="700" letter-spacing="NaN" fill="#393737" data-text-alignment="R" font-style="normal"><tspan x="6.620826721191406" y="15.5">DREAM SPACE</tspan></text></g><rect id="icon.primary" x="110" y="86" width="18" height="18" display="none" fill="#393737"></rect><svg xmlns="http://www.w3.org/2000/svg" xmlns:xlink="http://www.w3.org/1999/xlink" viewBox="0 0 24 24" version="1.1" fill="#393737" id="svg_icon.primary" x="110" y="86" width="18" height="18"><g id="surface1"><path style=" " d="M 8 0 L 7.1875 2.1875 L 5 3 L 7.1875 3.8125 L 8 6 L 8.8125 3.8125 L 11 3 L 8.8125 2.1875 Z M 3 6 L 2.1875 8.1875 L 0 9 L 2.1875 9.8125 L 3 12 L 3.8125 9.8125 L 6 9 L 3.8125 8.1875 Z M 15 6 C 10.054688 6 6 10.054688 6 15 C 6 19.945313 10.054688 24 15 24 C 19.707031 24 23.550781 20.40625 24 15.8125 L 24.125 14.34375 L 22.71875 14.75 C 22.078125 14.933594 21.605469 15 21 15 C 18.246094 15 16 12.753906 16 10 C 16 9.082031 16.257813 8.273438 16.6875 7.5 L 17.5 6 Z M 14.5 8.09375 C 14.3125 8.722656 14 9.304688 14 10 C 14 13.84375 17.15625 17 21 17 C 21.21875 17 21.417969 16.925781 21.625 16.90625 C 20.757813 19.832031 18.214844 22 15 22 C 11.144531 22 8 18.855469 8 15 C 8 11.320313 10.890625 8.363281 14.5 8.09375 Z "></path></g></svg><rect id="shape.primary" fill="#393737" x="52" y="108" width="76" height="2"></rect></g></svg>